<?xml version="1.0" encoding="utf-8"?>
<!-- Generator: Adobe Illustrator 19.0.0, SVG Export Plug-In . SVG Version: 6.00 Build 0)  -->
<svg version="1.1" id="Слой_1" xmlns="http://www.w3.org/2000/svg" xmlns:xlink="http://www.w3.org/1999/xlink" x="0px" y="0px"
	 viewBox="0 0 203.9 223.4" style="enable-background:new 0 0 203.9 223.4;" xml:space="preserve">
<style type="text/css">
	.st0{fill-rule:evenodd;clip-rule:evenodd;fill:none;stroke:#00A1DA;stroke-width:0.5669;stroke-miterlimit:22.9256;}
	.st1{fill-rule:evenodd;clip-rule:evenodd;fill:#00A1DA;stroke:#00A1DA;stroke-width:0.5669;stroke-miterlimit:22.9256;}
	.st2{fill-rule:evenodd;clip-rule:evenodd;fill:#00A1DA;}
	.st3{fill-rule:evenodd;clip-rule:evenodd;fill:none;stroke:#0094D9;stroke-width:1.4173;stroke-miterlimit:22.9256;}
	.st4{fill-rule:evenodd;clip-rule:evenodd;fill:#0094D9;}
	.st5{fill-rule:evenodd;clip-rule:evenodd;fill:none;stroke:#0094D9;stroke-width:0.5669;stroke-miterlimit:22.9256;}
	.st6{fill-rule:evenodd;clip-rule:evenodd;fill:#CB1A20;stroke:#CB1A20;stroke-width:0.216;stroke-miterlimit:22.9256;}
	.st7{fill-rule:evenodd;clip-rule:evenodd;fill:#CB1A20;}
	.st8{fill-rule:evenodd;clip-rule:evenodd;fill:#FFFFFF;}
</style>
<g>
	<path class="st0" d="M97.1,168h-2.7c0-33.4-1.1-67.7-9.8-100.2C79.7,49.8,71.3,29,67.8,8.5l-1.1-6.2c0.3,2.1,2,4.6,4.2,5.4
		c9.4,5.7,17.7,3,26.1,11.2C97.1,69.8,97.1,117.1,97.1,168z"/>
	<g>
		<defs>
			<path id="SVGID_1_" d="M97.1,168.2h-2.7h-0.2V168c0-16.7-0.3-33.6-1.7-50.4c-1.4-16.8-3.8-33.5-8.2-49.7
				c-2-7.5-5.2-15.5-8.6-23.8c-4.7-11.6-9.5-23.6-11.6-35.6l-1-5.9c0-0.1,0-0.2-0.1-0.3l0,0h0l0,0l0.4-0.1l0.1,0.3
				c0.2,1,0.7,2,1.4,2.8c0.7,0.9,1.6,1.7,2.7,2.1c3.9,1.5,8.1,2.1,12.4,2.6c6.1,0.8,12.2,1.6,17.2,5.2l0.1,0.1v0.1V168v0.2H97.1z"/>
		</defs>
		<clipPath id="SVGID_2_">
			<use xlink:href="#SVGID_1_"  style="overflow:visible;"/>
		</clipPath>
		<g style="clip-path:url(#SVGID_2_);">
			
				<image style="overflow:visible;" width="185" height="897" xlink:href="8E0994225E2A3626.jpg"  transform="matrix(0.1846 0 0 0.185 63.1199 2.2853)">
			</image>
		</g>
	</g>
	<g>
		<g>
			<defs>
				<rect id="SVGID_3_" x="97.4" y="0" width="35.4" height="170.5"/>
			</defs>
			<clipPath id="SVGID_4_">
				<use xlink:href="#SVGID_3_"  style="overflow:visible;"/>
			</clipPath>
			<g style="clip-path:url(#SVGID_4_);">
				
					<image style="overflow:visible;" width="192" height="922" xlink:href="8E0994225E2A362A.jpg"  transform="matrix(0.1841 0 0 0.185 97.3951 0)">
				</image>
			</g>
		</g>
	</g>
	<path class="st1" d="M98,168h-0.9c0-50.9,0-98.2,0-149.1c8.3-8.1,16.7-5.5,26.1-11.2c2-1.2,3.9-3.3,4.2-5.4l-1.1,6.2
		c-3.5,20.4-11.9,41.3-16.7,59.3C100.9,100.3,98,134.6,98,168z"/>
	<path class="st2" d="M159.6,221.7c-3.2-0.2-5.6-0.4-7.6-0.6c-2-0.2-3.6-0.4-5.4-0.7c-5.8-1.1-11.7-2.3-17.7-3.5
		c-11.5-2.4-23.2-4.8-34.5-6c-3.9-0.4-8.5-0.4-13.1,0c-5.9,0.5-11.8,1.5-16.5,2.5c-4.5,0.9-8.3,1.9-11.8,2.7
		c-12.5,3-19.7,4.7-36.6,3.1c-5.6-0.5-9.7-1.7-11.6-2.2l-0.3-0.1l-0.9-0.3l0-1l0-61.8v-1.3l1.3,0l18.4,0
		c0.9-18.9,7.2-36.5,17.2-51.1C51,86.2,65.5,74.2,81.9,68.1l0.9,2.4c-15.9,6-30,17.5-40.2,32.5c-9.9,14.5-16.2,32.1-16.8,50.9l0,1.2
		l-1.2,0l-18.4,0l0,59.5c2,0.6,5.7,1.5,10.6,2c16.5,1.5,23.6-0.1,35.8-3.1c3.4-0.8,7.2-1.7,11.8-2.7c4.8-1,10.8-2,16.8-2.5
		c4.7-0.4,9.5-0.5,13.6,0c11.4,1.3,23.2,3.7,34.8,6.1c6,1.2,11.9,2.4,17.6,3.5c1.7,0.3,3.3,0.5,5.2,0.7c1.9,0.2,4.3,0.3,7.5,0.5
		L159.6,221.7z"/>
	<path class="st2" d="M105.4,219.4c-6.1-1.8-13.3-2.8-20-3.1c-8-0.4-15.4,0-20,1c-11,2.4-19.9,4.3-28,5.3c-8.1,1-15.3,1.2-23.1,0.1
		l-0.1,0c-2.7-0.6-5.2-1.2-7.2-1.6v0c-3.7-0.9-6.2-1.5-6.5-1.6L0,219.2v-0.6v-67.5h1.7V218c1,0.3,3.1,0.8,5.8,1.4l0,0
		c2.2,0.5,4.6,1.1,7.1,1.6c7.5,1,14.7,0.8,22.6-0.1c8-1,16.8-2.8,27.8-5.2c4.7-1,12.3-1.5,20.4-1.1c6.9,0.4,14.2,1.4,20.4,3.2
		L105.4,219.4z"/>
	<path class="st2" d="M84.8,76.1c-15.6,6.5-29.5,18.4-39.3,33.2C36,123.6,30.2,140.6,30.2,158v1.7l-1.7,0l-17.1,0l0,50.6
		c14.6,3.5,33.1-0.7,50-4.5c9.9-2.2,19.2-4.3,27-4.8c9.4-0.5,27.9,2.5,47,5.5c4.4,0.7,8.8,1.4,12.8,2c20,3.1,31.3-0.8,42.4-4.6
		c3.8-1.3,7.5-2.6,11.6-3.6l0.8,3.3c-3.9,1-7.6,2.2-11.3,3.5c-11.5,3.9-23.2,8-44.1,4.7c-4.4-0.7-8.6-1.4-12.8-2
		c-18.9-3-37.2-6-46.3-5.5c-7.5,0.4-16.7,2.5-26.4,4.7c-17.7,4-37.3,8.4-52.9,4.2L8,213v-1.3L8,158l0-1.7l1.7,0l17.1,0
		c0.4-17.5,6.3-34.5,15.9-48.9C52.9,92.1,67.3,79.8,83.5,73L84.8,76.1L84.8,76.1z M113.2,68.2v3.4c23.7,0,45.7,9.5,61.7,25
		c15.7,15.2,25.6,36.2,25.6,59.5h3.4c0-24.3-10.3-46.1-26.7-61.9C160.7,78.1,137.8,68.2,113.2,68.2z"/>
	<path class="st3" d="M179.4,88.9c-16.4-15-39.1-24.3-62.9-24.8"/>
	<path class="st4" d="M81,66c-18.2,7.7-31.7,19.4-41.1,33.1c-10.8,15.7-16.4,34-17.6,52.1l0,0.3h-0.3l-21.9,0v-0.7l21.6,0
		c1.3-18.1,6.9-36.4,17.7-52.1c9.5-13.8,23.1-25.6,41.4-33.3L81,66z"/>
	<path class="st5" d="M149.3,66.2c-9.6-3.5-19.9-5.5-30.6-5.7c-0.7,0,1.4,0,0.7,0"/>
	<path class="st6" d="M113.3,87.4l0.2-8.6l3.2,0.1c0.6,0,1,0.1,1.3,0.1c0.4,0.1,0.8,0.2,1.1,0.4c0.3,0.2,0.5,0.5,0.7,0.8
		c0.2,0.4,0.2,0.8,0.2,1.2c0,0.7-0.3,1.3-0.7,1.8c-0.5,0.5-1.3,0.7-2.5,0.7l-2.2-0.1l-0.1,3.5L113.3,87.4L113.3,87.4z M114.5,82.9
		l2.2,0.1c0.7,0,1.3-0.1,1.6-0.4c0.3-0.3,0.5-0.6,0.5-1.1c0-0.4-0.1-0.7-0.2-0.9c-0.2-0.3-0.4-0.4-0.7-0.5c-0.2-0.1-0.5-0.1-1.1-0.1
		l-2.2-0.1L114.5,82.9L114.5,82.9z M121.4,83.5c0.2-1.4,0.8-2.4,1.7-3.1c0.9-0.7,1.9-0.9,3.1-0.7c0.8,0.1,1.5,0.4,2,0.9
		c0.6,0.5,0.9,1.1,1.2,1.8c0.2,0.7,0.2,1.5,0.1,2.4c-0.2,0.9-0.5,1.6-0.9,2.2c-0.5,0.6-1,1-1.7,1.3c-0.7,0.2-1.4,0.3-2.1,0.2
		c-0.8-0.1-1.5-0.5-2-1c-0.6-0.5-0.9-1.1-1.1-1.8C121.3,85,121.3,84.3,121.4,83.5L121.4,83.5z M122.6,83.8c-0.2,1,0,1.9,0.4,2.6
		c0.4,0.7,1.1,1.1,1.9,1.2c0.8,0.1,1.6,0,2.2-0.5c0.6-0.5,1.1-1.3,1.3-2.4c0.1-0.7,0.1-1.3,0-1.9c-0.1-0.6-0.4-1-0.8-1.4
		c-0.4-0.4-0.9-0.6-1.4-0.7c-0.8-0.1-1.5,0-2.2,0.5C123.2,81.6,122.8,82.5,122.6,83.8L122.6,83.8z M136.9,88.1l1,0.6
		c-0.5,0.8-1.1,1.4-1.8,1.7c-0.7,0.3-1.5,0.4-2.4,0.1c-0.9-0.2-1.6-0.6-2-1.1c-0.5-0.5-0.8-1.2-0.9-1.9c-0.1-0.8-0.1-1.5,0.1-2.3
		c0.2-0.9,0.6-1.6,1.1-2.1c0.5-0.6,1.1-0.9,1.8-1.1c0.7-0.2,1.4-0.2,2.1,0c0.8,0.2,1.5,0.6,1.9,1.2c0.5,0.6,0.7,1.3,0.7,2.1l-1.1,0
		c0-0.7-0.2-1.2-0.5-1.5c-0.3-0.4-0.7-0.6-1.3-0.8c-0.6-0.2-1.2-0.2-1.7,0c-0.5,0.2-0.9,0.5-1.2,1c-0.3,0.5-0.5,1-0.7,1.5
		c-0.2,0.7-0.2,1.4-0.2,1.9c0.1,0.6,0.3,1.1,0.6,1.4c0.4,0.4,0.8,0.6,1.3,0.8c0.6,0.2,1.2,0.1,1.7-0.1
		C136.1,89.2,136.6,88.7,136.9,88.1L136.9,88.1z M140.1,92.7l2.7-7.1l-2.6-1l0.4-0.9l6.4,2.5l-0.4,0.9l-2.6-1l-2.7,7.1L140.1,92.7
		L140.1,92.7z M146.2,90.5c-0.4,0.7-0.6,1.4-0.6,2.1c0,0.8,0.1,1.5,0.5,2.1c0.4,0.7,0.9,1.2,1.6,1.6c0.6,0.4,1.3,0.6,2.1,0.6
		c0.7,0,1.4-0.2,2.1-0.6c0.6-0.4,1.2-1,1.6-1.8c0.4-0.7,0.7-1.5,0.7-2.3c0-0.8-0.1-1.5-0.5-2.1c-0.4-0.6-0.9-1.2-1.6-1.6
		c-1.1-0.6-2.1-0.7-3.2-0.4C147.8,88.5,146.9,89.3,146.2,90.5L146.2,90.5z M147.2,91.1c-0.5,0.9-0.7,1.7-0.5,2.5
		c0.2,0.8,0.7,1.4,1.4,1.8c0.7,0.4,1.5,0.5,2.3,0.3c0.8-0.3,1.4-0.9,2-1.8c0.3-0.6,0.5-1.2,0.6-1.8c0.1-0.6-0.1-1.1-0.3-1.6
		c-0.3-0.5-0.6-0.9-1.1-1.1c-0.7-0.4-1.4-0.5-2.2-0.3C148.6,89.3,147.9,90,147.2,91.1L147.2,91.1z M152.5,99l4.8-7.1l2.7,1.8
		c0.5,0.4,0.9,0.7,1.2,1.1c0.2,0.4,0.3,0.8,0.3,1.2c0,0.4-0.1,0.8-0.4,1.1c-0.2,0.3-0.5,0.5-0.8,0.7c-0.3,0.2-0.7,0.2-1.2,0.1
		c0.3,0.4,0.5,0.9,0.6,1.3c0,0.5-0.1,0.9-0.4,1.3c-0.2,0.3-0.5,0.6-0.8,0.8c-0.3,0.2-0.7,0.3-1,0.3c-0.3,0-0.7,0-1-0.2
		c-0.4-0.1-0.8-0.4-1.2-0.7L152.5,99L152.5,99z M156.3,95.5l1.5,1c0.4,0.3,0.7,0.5,1,0.5c0.3,0.1,0.5,0.1,0.8,0
		c0.2-0.1,0.4-0.2,0.6-0.5c0.2-0.2,0.2-0.5,0.3-0.7c0-0.3-0.1-0.5-0.2-0.7c-0.2-0.2-0.5-0.5-1-0.8l-1.4-1L156.3,95.5L156.3,95.5z
		 M154,98.8l1.7-2.5l1.6,1.1c0.5,0.3,0.8,0.6,1,0.8c0.2,0.2,0.3,0.5,0.3,0.8c0,0.3-0.1,0.6-0.3,0.8c-0.2,0.2-0.3,0.4-0.5,0.5
		c-0.2,0.1-0.4,0.2-0.6,0.2c-0.2,0-0.4-0.1-0.7-0.2c-0.1-0.1-0.4-0.2-0.7-0.4L154,98.8L154,98.8z M160.3,101.4l2.5,2.1l0.7-0.8
		l-2.5-2.1L160.3,101.4L160.3,101.4z M162.2,106.3l6.1-6.1l0.8,0.8l-2.5,2.5l3.1,3.1l2.5-2.5l0.8,0.8l-6.1,6.1l-0.8-0.8l2.9-2.9
		l-3.1-3.1l-2.9,2.9L162.2,106.3L162.2,106.3z M167.5,111.8l0.8,0.9l2.6-1l2.4,2.8l-1.3,2.5l0.8,1l4.3-8.3l-0.8-1L167.5,111.8
		L167.5,111.8z M171.8,111.4l1.9,2.2l1.2-2.2c0.4-0.7,0.7-1.2,1-1.6c-0.5,0.3-1,0.5-1.6,0.7L171.8,111.4L171.8,111.4z M174.8,116.9
		l0.9-0.6l1.9,2.7l-0.9,0.6L174.8,116.9L174.8,116.9z M183.4,118.9l-1.1,0.6c-2.8,1.5-4.9,2.1-6.1,2l-0.3-0.6l-2.7,1.4l0.5,0.9
		l1.8-0.9l2.6,5.1l-1.8,0.9l0.5,0.9l2.7-1.4L179,127l6.8-3.5L183.4,118.9L183.4,118.9z M184.3,123l-5.9,3l-1.8-3.5
		c0.9,0,2-0.3,3.1-0.7c1.2-0.5,2.1-0.9,2.8-1.2l0.4-0.2L184.3,123L184.3,123z M183,127.6c1.3-0.5,2.5-0.5,3.5,0
		c1,0.5,1.7,1.3,2.1,2.4c0.3,0.8,0.3,1.5,0.2,2.2c-0.1,0.7-0.5,1.4-1,1.9c-0.5,0.5-1.2,0.9-2,1.2c-0.8,0.3-1.6,0.4-2.4,0.3
		c-0.8-0.1-1.4-0.4-2-0.9c-0.5-0.5-0.9-1.1-1.2-1.8c-0.3-0.8-0.3-1.5-0.2-2.2c0.2-0.7,0.5-1.4,1-1.9
		C181.7,128.2,182.3,127.8,183,127.6L183,127.6z M183.4,128.7c1.2-0.4,2.2-0.5,2.9-0.1c0.7,0.4,1.2,0.9,1.5,1.7
		c0.2,0.5,0.2,1.1,0.1,1.6c-0.1,0.5-0.4,1-0.8,1.4c-0.4,0.4-1,0.7-1.6,0.9c-1,0.4-1.9,0.4-2.7,0.1c-0.7-0.3-1.3-0.9-1.5-1.7
		c-0.3-0.8-0.2-1.6,0.2-2.3C181.7,129.6,182.4,129,183.4,128.7L183.4,128.7z M182.2,138.2l8.3-2.1l0.3,1.1l-3.4,0.9l1.1,4.3l3.4-0.9
		l0.3,1.1l-8.3,2.1l-0.3-1.1l3.9-1l-1.1-4.3l-3.9,1L182.2,138.2L182.2,138.2z M192.6,145l0.1,1.1l-5,3.2l5.5,2l0.1,1.1l-6.9-2.7
		c-0.9-0.3-1.4-0.6-1.7-0.9c-0.3-0.2-0.4-0.6-0.5-1.1c0-0.3,0-0.7,0.1-1.1l1-0.1c-0.2,0.3-0.2,0.6-0.2,1c0,0.3,0.1,0.5,0.3,0.7
		c0.2,0.2,0.6,0.4,1.3,0.6L192.6,145z"/>
	<path class="st7" d="M26.5,174.3v9.4c0,0.8,1.2,1.6,1.6,2.1c0,0,1,0.6,1.6,0.6c0.5,0,0.9-0.2,1.3-0.6c0.4-0.4,0.5-0.9,0.5-1.5
		c0-0.5-0.1-1-0.4-1.4c-0.4-0.5-2.2-0.8-2.9-0.8c-0.1,0-0.3,0-0.5,0.1c-0.2,0.1-0.4,0.1-0.5,0.2l0.6-4.4l0.2-0.2
		c0.5,0,2.8-1.5,2.8-1.9c0-0.5-0.2-0.9-0.5-1.2c-0.3-0.3-0.8-0.5-1.2-0.5H26.5L26.5,174.3z M22.1,169.7h7.8c1.3,0,2.5,0.4,3.6,1.3
		c1.2,1,1.8,2.2,1.8,3.7c0,0.8-0.1,1.5-0.3,2.1c-0.2,0.6-0.6,1.1-1.2,1.5c0.6,0.6,1.2,1.4,1.6,2.5c0.4,1.1,0.6,2.2,0.6,3.4
		c0,1.8-0.6,3.4-1.8,4.8c-1.2,1.4-2.6,2.1-4.2,2.1c-1.9,0-4.8-0.7-6-2c-1.2-1.4-1.8-3.1-1.8-5.3V169.7L22.1,169.7z M37.4,180.2
		c0-3,0.9-5.6,2.7-7.7c1.8-2.1,3.9-3.2,6.4-3.2c2.5,0,4.7,1.1,6.4,3.2c1.8,2.1,2.6,4.7,2.6,7.7c0,3-0.9,5.6-2.6,7.7
		c-1.7,2.1-3.9,3.2-6.5,3.2c-2.5,0-4.6-1.1-6.4-3.2C38.3,185.8,37.4,183.2,37.4,180.2L37.4,180.2z M41.9,180.2c0,1.6,0.4,2.9,1.3,4
		c0.9,1.1,2,1.7,3.2,1.7c1.3,0,2.4-0.6,3.2-1.7c0.9-1.1,1.3-2.5,1.3-4.1c0-1.6-0.4-2.9-1.3-4c-0.9-1.1-2-1.7-3.2-1.7
		c-1.3,0-2.4,0.5-3.2,1.6C42.4,177.2,41.9,178.6,41.9,180.2L41.9,180.2z M64.7,169.4c2,0,3.6,0.8,4.9,2.4c1.2,1.6,1.9,3.8,1.9,6.6
		v7.3h1.2v5.1H56.6v-5.1H58v-7.3c0-2.8,0.6-5,1.9-6.6C61.1,170.2,62.7,169.4,64.7,169.4L64.7,169.4z M67.1,185.6V178
		c0-2.4-0.8-3.5-2.4-3.5c-1.6,0-2.4,1.2-2.4,3.5v7.6H67.1L67.1,185.6z M73.8,180.2c0-3,0.9-5.6,2.7-7.7c1.8-2.1,3.9-3.2,6.4-3.2
		c2.5,0,4.7,1.1,6.4,3.2c1.8,2.1,2.6,4.7,2.6,7.7c0,3-0.9,5.6-2.6,7.7c-1.7,2.1-3.9,3.2-6.5,3.2c-2.5,0-4.6-1.1-6.4-3.2
		C74.7,185.8,73.8,183.2,73.8,180.2L73.8,180.2z M78.3,180.2c0,1.6,0.4,2.9,1.3,4c0.9,1.1,2,1.7,3.2,1.7c1.3,0,2.4-0.6,3.2-1.7
		c0.9-1.1,1.3-2.5,1.3-4.1c0-1.6-0.4-2.9-1.3-4c-0.9-1.1-2-1.7-3.2-1.7c-1.3,0-2.4,0.5-3.2,1.6C78.7,177.2,78.3,178.6,78.3,180.2
		L78.3,180.2z M94,169.7h4.4v8.4l4.7-8.4h4.8l-5.1,8.4c1.2,0,2.1,0.5,2.9,1.4c0.7,0.9,1,1.9,1,3v8.2h-4.4v-7.1
		c0-0.7-0.2-1.3-0.5-1.8c-0.4-0.5-0.9-0.7-1.5-0.7c-0.6,0-1,0.2-1.4,0.7c-0.3,0.5-0.5,1.1-0.5,1.9v7.1H94V169.7L94,169.7z
		 M109.1,190.8v-12.5c0-2.8,0.6-5,1.9-6.6c1.2-1.6,2.9-2.4,4.9-2.4s3.7,0.8,4.9,2.4c1.2,1.6,1.9,3.8,1.9,6.6v12.5h-4.4v-5.4h-4.7
		v5.4H109.1L109.1,190.8z M115.9,174.4c-1.6,0-2.4,1.2-2.4,3.6v2.4h4.7v-2.6c0-1-0.2-1.8-0.6-2.4
		C117.2,174.7,116.6,174.4,115.9,174.4L115.9,174.4z M125.1,190.8v-21.1h4.4v7.5h4.7v-7.5h4.4v21.1h-4.4v-8.5h-4.7v8.5H125.1
		L125.1,190.8z M141.1,190.8v-12.5c0-2.8,0.6-5,1.9-6.6c1.2-1.6,2.9-2.4,4.9-2.4c2,0,3.7,0.8,4.9,2.4c1.2,1.6,1.9,3.8,1.9,6.6v12.5
		h-4.4v-5.4h-4.7v5.4H141.1L141.1,190.8z M147.9,174.4c-1.6,0-2.4,1.2-2.4,3.6v2.4h4.7v-2.6c0-1-0.2-1.8-0.6-2.4
		C149.2,174.7,148.6,174.4,147.9,174.4L147.9,174.4z M172.2,178.3v12.4h-4.4V178c0-2.4-0.8-3.5-2.4-3.5c-1.6,0-2.4,1.2-2.4,3.5v6.8
		c0,2.1-0.3,3.6-1,4.4c-0.7,1-2,1.5-3.7,1.5h-2v-4.2c0.8,0,1.4-0.2,1.8-0.6c0.4-0.4,0.6-1.2,0.6-2.3v-5.4c0-2.8,0.6-5,1.9-6.6
		c1.2-1.6,2.9-2.4,4.9-2.4c2,0,3.6,0.8,4.9,2.4C171.5,173.4,172.2,175.6,172.2,178.3z"/>
	<path class="st2" d="M98.2,41.9c0,2.3-0.9,4.4-2.5,6l0,0c-1.5,1.5-3.6,2.5-6,2.5s-4.4-0.9-6-2.5h0c-1.5-1.5-2.5-3.6-2.5-6
		s0.9-4.4,2.5-6c1.5-1.5,3.6-2.5,6-2.5c1.2,0,2.3,0.2,3.3,0.7c1,0.4,2,1.1,2.8,1.9l-1.2,1.2c-0.6-0.6-1.4-1.2-2.2-1.5
		c-0.8-0.3-1.7-0.5-2.6-0.5c-1.9,0-3.5,0.8-4.8,2c-1.2,1.2-2,2.9-2,4.8s0.8,3.5,2,4.8l0,0c1.2,1.2,2.9,2,4.8,2s3.5-0.8,4.8-2
		c1.2-1.2,2-2.9,2-4.8H98.2z"/>
	<path class="st8" d="M96.5,41.9c0-2.3,0.9-4.3,2.4-5.8c1.5-1.5,3.5-2.4,5.8-2.4c2.3,0,4.3,0.9,5.8,2.4c1.5,1.5,2.4,3.5,2.4,5.8
		s-0.9,4.3-2.4,5.8c-1.5,1.5-3.5,2.4-5.8,2.4c-1.1,0-2.2-0.2-3.2-0.7c-1-0.4-1.9-1.1-2.7-1.9l1-0.9c0.6,0.7,1.4,1.2,2.3,1.6
		c0.8,0.3,1.7,0.5,2.7,0.5c1.9,0,3.6-0.8,4.8-2c1.2-1.2,2-3,2-4.8s-0.8-3.6-2-4.8c-1.2-1.2-3-2-4.8-2c-1.9,0-3.6,0.8-4.8,2
		c-1.2,1.2-2,3-2,4.8H96.5z"/>
	<path class="st2" d="M85.6,45.5v-7.2h1.7v7.2H85.6L85.6,45.5z M90.7,40.2c0,0.2,0.1,0.4,0.2,0.5c0.1,0.1,0.3,0.2,0.5,0.2
		c0.2,0,0.4-0.1,0.5-0.2c0.1-0.1,0.2-0.3,0.2-0.5c0-0.2-0.1-0.4-0.2-0.5c-0.1-0.1-0.3-0.2-0.6-0.2c-0.2,0-0.4,0.1-0.5,0.2
		C90.8,39.8,90.7,40,90.7,40.2L90.7,40.2z M90.5,43.1c0,0.3,0.1,0.5,0.3,0.6c0.2,0.2,0.4,0.3,0.7,0.3c0.3,0,0.5-0.1,0.7-0.3
		c0.2-0.2,0.3-0.4,0.3-0.6c0-0.3-0.1-0.5-0.3-0.6c-0.2-0.2-0.4-0.3-0.7-0.3c-0.3,0-0.5,0.1-0.7,0.3C90.6,42.6,90.5,42.8,90.5,43.1
		L90.5,43.1z M90,41.5c-0.5-0.4-0.8-0.9-0.8-1.5c0-0.5,0.2-1,0.6-1.4c0.4-0.4,1-0.6,1.7-0.6c0.7,0,1.2,0.2,1.7,0.6
		c0.4,0.4,0.7,0.8,0.7,1.4c0,0.6-0.3,1.1-0.8,1.5c0.3,0.2,0.6,0.4,0.8,0.7c0.2,0.3,0.3,0.7,0.3,1.1c0,0.7-0.2,1.2-0.7,1.6
		c-0.5,0.4-1.1,0.6-1.9,0.6c-0.8,0-1.4-0.2-1.9-0.6c-0.5-0.4-0.7-1-0.7-1.6c0-0.4,0.1-0.8,0.3-1.1C89.3,41.9,89.6,41.7,90,41.5
		L90,41.5z M100.9,42c-0.1,0.2-0.2,0.4-0.2,0.4c-0.1,0.1-0.1,0.3-0.1,0.4c0,0.3,0.1,0.5,0.2,0.7c0.2,0.2,0.4,0.2,0.6,0.2
		c0.3,0,0.5-0.1,0.6-0.3c0.2-0.2,0.2-0.4,0.2-0.7c0-0.3-0.1-0.5-0.2-0.6c-0.2-0.2-0.4-0.2-0.7-0.2c0.3-0.5,0.5-1,0.8-1.5
		c1.3,0.3,1.9,1,1.9,2.3c0,0.8-0.3,1.4-0.8,2c-0.5,0.5-1.2,0.8-1.9,0.8c-0.7,0-1.3-0.2-1.8-0.7c-0.5-0.5-0.7-1.1-0.7-1.7
		c0-0.4,0.1-0.8,0.2-1.2c0.1-0.3,0.3-0.7,0.6-1.2c0.5-0.8,0.9-1.7,1.4-2.5c0.6,0,1.3,0,1.9,0C102.3,39.4,101.6,40.7,100.9,42
		L100.9,42z M106.8,40.5c0.2,0,0.4,0,0.5,0c0.7,0,1.3,0.2,1.7,0.6c0.4,0.4,0.6,1,0.6,1.8c0,0.8-0.2,1.4-0.7,1.8
		c-0.4,0.4-1.1,0.6-1.9,0.6c-0.7,0-1.5,0-2.2,0c0-0.6,0-1.1,0-1.7c0.7,0,1.4,0,2.1,0c0.7,0,1-0.3,1-0.8c0-0.2-0.1-0.4-0.2-0.6
		c-0.2-0.1-0.4-0.2-0.7-0.2c-0.7,0-1.3,0-2,0c0-1.3,0-2.6,0-3.9c1.3,0,2.7,0,4,0c0,0.5,0,1,0,1.5c-0.8,0-1.6,0-2.3,0
		C106.8,40,106.8,40.2,106.8,40.5z"/>
	<path class="st8" d="M100.9,42c-0.1,0.2-0.2,0.4-0.2,0.4c-0.1,0.1-0.1,0.3-0.1,0.4c0,0.3,0.1,0.5,0.2,0.7c0.2,0.2,0.4,0.2,0.6,0.2
		c0.3,0,0.5-0.1,0.6-0.3c0.2-0.2,0.2-0.4,0.2-0.7c0-0.3-0.1-0.5-0.2-0.6c-0.2-0.2-0.4-0.2-0.7-0.2c0.3-0.5,0.5-1,0.8-1.5
		c1.3,0.3,1.9,1,1.9,2.3c0,0.8-0.3,1.4-0.8,2c-0.5,0.5-1.2,0.8-1.9,0.8c-0.7,0-1.3-0.2-1.8-0.7c-0.5-0.5-0.7-1.1-0.7-1.7
		c0-0.4,0.1-0.8,0.2-1.2c0.1-0.3,0.3-0.7,0.6-1.2c0.5-0.8,0.9-1.7,1.4-2.5c0.6,0,1.3,0,1.9,0C102.3,39.4,101.6,40.7,100.9,42
		L100.9,42z M106.8,40.5c0.2,0,0.4,0,0.5,0c0.7,0,1.3,0.2,1.7,0.6c0.4,0.4,0.6,1,0.6,1.8c0,0.8-0.2,1.4-0.7,1.8
		c-0.4,0.4-1.1,0.6-1.9,0.6c-0.7,0-1.5,0-2.2,0c0-0.6,0-1.1,0-1.7c0.7,0,1.4,0,2.1,0c0.7,0,1-0.3,1-0.8c0-0.2-0.1-0.4-0.2-0.6
		c-0.2-0.1-0.4-0.2-0.7-0.2c-0.7,0-1.3,0-2,0c0-1.3,0-2.6,0-3.9c1.3,0,2.7,0,4,0c0,0.5,0,1,0,1.5c-0.8,0-1.6,0-2.3,0
		C106.8,40,106.8,40.2,106.8,40.5z"/>
</g>
</svg>
